<svg width="22" height="21" viewBox="0 0 22 21" xmlns="http://www.w3.org/2000/svg"><defs><linearGradient x1="0%" y1="7.195%" y2="91.185%" id="a"><stop stop-color="#12D09C" offset="0%"/><stop stop-color="#07ABBE" offset="100%"/></linearGradient><linearGradient x1="0%" y1="3.021%" y2="95.201%" id="b"><stop stop-color="#12D09C" offset="0%"/><stop stop-color="#07ABBE" offset="100%"/></linearGradient></defs><g fill-rule="nonzero" fill="none"><path d="M11.703.75a9.379 9.379 0 0 1 6.744 2.85 9.8 9.8 0 0 1 2.803 6.898c0 2.605-.993 5.057-2.802 6.897-1.803 1.835-4.193 2.855-6.742 2.855-1.847 0-3.47-.474-5.083-1.483-1.32.31-2.32.785-4.707.736.365-.987.819-1.825 1.096-2.64.343-.993.296-1.555.267-1.703-.758-1.564-1.124-3.11-1.124-4.662 0-2.605.993-5.057 2.802-6.897C6.76 1.763 9.154.75 11.703.75z" stroke="url(#a)" stroke-width="1.5"/><path d="M11 11a1 1 0 1 0 2 0 1 1 0 0 0-2 0z" fill="url(#b)"/><path d="M7 11a1 1 0 1 0 2 0 1 1 0 0 0-2 0z" fill="url(#b)"/><path d="M15 11a1 1 0 1 0 2 0 1 1 0 0 0-2 0z" fill="url(#b)"/></g></svg>