<svg width="22" height="22" viewBox="0 0 22 22" xmlns="http://www.w3.org/2000/svg"><defs><linearGradient x1="0%" y1="3.021%" y2="95.201%" id="a"><stop stop-color="#12D09C" offset="0%"/><stop stop-color="#07ABBE" offset="100%"/></linearGradient></defs><path d="M11 0C4.926 0 0 4.926 0 11s4.926 11 11 11 11-4.926 11-11S17.074 0 11 0zm4.598 13.85a1.24 1.24 0 0 1-1.75 1.753L11 12.755l-2.85 2.848a1.233 1.233 0 0 1-1.75 0 1.24 1.24 0 0 1 0-1.753l2.847-2.845L6.4 8.155a1.24 1.24 0 1 1 1.752-1.753L11 9.25l2.85-2.85a1.24 1.24 0 1 1 1.753 1.752L12.753 11l2.845 2.85z" fill="url(#a)" fill-rule="nonzero"/></svg>