<svg width="22" height="21" viewBox="0 0 22 21" xmlns="http://www.w3.org/2000/svg"><defs><linearGradient x1="0%" y1="7.195%" y2="91.185%" id="a"><stop stop-color="#12D09C" offset="0%"/><stop stop-color="#07ABBE" offset="100%"/></linearGradient></defs><path d="M15.737 9.268c0 .45.315.75.786.75.472 0 .787-.3.787-.75-.006-2.454-2.092-4.442-4.667-4.447-.472 0-.785.3-.785.75 0 .451.314.751.787.751 1.728 0 3.092 1.348 3.092 2.946zm3.144 0c0 .45.315.75.787.75.473 0 .786-.3.786-.75 0-4.046-3.46-7.394-7.757-7.394-.473 0-.787.3-.787.75s.314.75.787.75c3.353 0 6.184 2.646 6.184 5.894zM8.401 6.672c.837-.8.942-2.05.157-2.949L6.146.827c-.8-.947-2.25-1.104-3.25-.351-.052.1-.158.1-.158.15L.641 2.625c-1.993 1.898.838 7.093 6.027 12.039 5.19 4.946 10.536 7.593 12.528 5.746l2.096-1.999c.944-.9.944-2.299 0-3.097l-.158-.15-3.039-2.3a2.353 2.353 0 0 0-3.093.15l-1.31 1.25a18.463 18.463 0 0 1-3.722-2.747c-1.047-1-1.938-2.149-2.83-3.496L8.4 6.67H8.4zM7.297 4.72c.211.3.211.75-.052.95L5.516 7.37a.738.738 0 0 0-.158.9 18.383 18.383 0 0 0 3.407 4.346 19.142 19.142 0 0 0 4.56 3.247c.315.15.682.1.945-.15l1.78-1.699c.315-.3.682-.3.997-.05l3.038 2.35s.054 0 .054.049c.315.249.315.699.052 1l-.052.049-2.097 1.998c-.995.949-5.818-1.5-10.377-5.745C3.157 9.368.64 4.72 1.688 3.723l2.15-2.048c.314-.2.839-.2 1.102.15L7.298 4.72z" fill="url(#a)" fill-rule="nonzero"/></svg>