<svg xmlns="http://www.w3.org/2000/svg" xmlns:xlink="http://www.w3.org/1999/xlink"><defs><symbol viewBox="0 0 60 60" id="apply"><path d="M4.9.1h42c1.5 0 3 .7 3.9 1.9.8 1 1.2 2.2 1.2 3.5v6.3c0 1-.8 1.9-1.9 1.9-.9 0-1.7-.8-1.8-1.6-.1-1.8 0-3.5 0-5.3 0-.5-.3-1-.6-1.4-.5-.7-1.3-1.4-2.2-1.4H6.3c-1 0-1.8.7-2.3 1.4-.1.3-.3.8-.2 1.3v46.4c0 .6.1 1.2.4 1.7.5.7 1.3 1.4 2.2 1.4h38.5c.5 0 1.1.1 1.5-.2.9-.5 1.7-1.5 1.6-2.6v-14c0-.5.1-1 .5-1.3.7-.8 2-.7 2.7.1.3.3.4.8.4 1.2v15.1c0 .7 0 1.5-.3 2.2-.6 1.9-2.5 3.3-4.5 3.4h-42C2.9 60 1.2 58.7.5 56.9.1 56 0 55.2 0 54.4V6.2C0 5.5 0 4.7.1 4 .6 1.9 2.6.1 4.9.1z" /><path d="M50.7 15c.8-.6 1.9-.8 2.8-.6.8.2 1.6.7 2.1 1.2.9 1 1.9 1.9 2.8 2.9.9.9 1.6 2.2 1.5 3.5 0 1.1-.5 2.1-1.4 2.6-8.3 8.5-16.6 17.1-24.9 25.6-3.1.2-6.2.3-9.3.5.2-3 .5-6.1.7-9.1 0-.1 0-.2.1-.3L49.5 16c.4-.3.7-.7 1.2-1zm.9 3.9c1.2 1.3 2.5 2.6 3.7 3.9.3-.3.7-.5 1-.8.1-.4-.1-.8-.2-1.2-.9-.9-1.7-1.8-2.6-2.7-.2-.2-.6-.3-.9-.3-.3.3-.6.7-1 1.1zM49 21.6l-20.4 21c-.2.3-.2.9.1 1.2.9.9 1.7 1.8 2.6 2.7.2.3.7.3.9 0l20.4-21c-1.2-1.4-2.4-2.7-3.6-3.9zM14.3 15.4c.3-.1.6-.1.9-.1h18.5c1.1 0 2 1.1 1.8 2.1-.1.9-1 1.7-1.9 1.6H14.9c-.8 0-1.6-.6-1.8-1.4-.3-.8.3-1.9 1.2-2.2zM14.5 24.1c.2 0 .4 0 .6-.1h10.5c.5 0 .9 0 1.4.2.8.4 1.3 1.4 1 2.3-.2.8-1 1.3-1.8 1.3H15c-.6 0-1.2-.3-1.5-.7-.4-.6-.5-1.5-.1-2.1.1-.5.6-.8 1.1-.9z" /></symbol><symbol viewBox="0 0 60 60" id="arrow"><path d="M13.9 3.1c-.5-1.4.7-3 2.1-3.1.7-.1 1.3.2 1.8.7l26.4 26.4c.5.6 1.2 1.1 1.6 1.8.5.9.3 2.1-.4 2.8-8.6 8.8-17.4 17.6-26.2 26.5-.7.7-1.3 1.5-2.3 1.7-1.4.5-3-.6-3.1-2.1-.1-.8.3-1.5.9-2.1L40.4 30 15.3 4.9c-.5-.6-1.2-1-1.4-1.8z" /></symbol><symbol viewBox="0 0 60 60" id="download"><path d="M22.8 1.6C25 .5 27.5.1 30 0c2.5 0 5 .5 7.3 1.6 3.3 1.5 6.1 4.1 7.9 7.2 1.5 2.6 2.3 5.7 2.3 8.7 2.4.2 4.8 1.1 6.8 2.5 2.1 1.5 3.8 3.7 4.8 6.2 1 2.6 1.2 5.4.6 8.1-.5 2.1-1.5 4.1-2.9 5.8-1.9 2.1-4.3 3.7-7.1 4.4-2.3.7-4.8.4-7.1.4v-5h3.8c2.2 0 4.3-.9 5.9-2.3 1.8-1.6 2.8-4 2.8-6.4 0-3.5-2.2-6.8-5.5-8.1-2.2-1-4.7-.6-7-.6v-4.9c0-1.4-.2-2.7-.6-4-1-2.6-2.7-4.9-5-6.5-2.1-1.4-4.7-2.2-7.2-2.1-2.9 0-5.7 1.2-7.9 3-2.5 2.2-4.2 5.4-4.3 8.8-.1 1.9 0 3.8 0 5.7-2.4.1-4.9-.3-7.1.7-3.2 1.3-5.4 4.6-5.4 8 0 2.4 1 4.8 2.8 6.4 1.6 1.5 3.7 2.3 5.9 2.3h3.8v5h-4.8c-2.8-.2-5.6-1.3-7.8-3.2C2.5 39.6.8 36.6.3 33.5c-.5-3 0-6.1 1.5-8.8 2.1-4 6.3-6.8 10.8-7.1 0-2.4.5-4.8 1.5-7.1 1.6-3.9 4.8-7.2 8.7-8.9z" /><path d="M27.5 27.5h5v22.9l5-5 3.5 3.5-11 11c-3.7-3.7-7.4-7.3-11-11l3.5-3.5 5 5V27.5z" /></symbol><symbol viewBox="0 0 60 60" id="more"><path d="M38.3 10.6c.8-.6 2-.7 2.9-.3.7.3 1.2.9 1.8 1.4 3.4 3.3 6.8 6.6 10.1 9.9 2 1.9 3.9 3.9 5.9 5.7.5.6 1 1.5.9 2.3 0 1.2-.7 2.3-1.6 3l-16 16c-.6.6-1.3 1.1-2.1 1.2-1.9.3-3.9-1.4-3.7-3.4 0-.9.6-1.6 1.2-2.2 3.7-3.7 7.3-7.4 11-11.1H3c-1.5 0-2.8-1.2-3-2.7-.3-1.8 1.1-3.6 2.9-3.7h45.9L37.3 15.5c-1.1-1.5-.6-3.8 1-4.9z" /></symbol><symbol viewBox="0 0 60 60" id="phone"><path d="M16 .4c2.1-.9 4.8-.4 6.4 1.3.5.5.9 1 1.2 1.6 1.3 2.8 2.7 5.5 4 8.3.6 1.3.8 2.9.4 4.3-.4 1.1-1.1 2.1-2.1 2.8-1.3.9-2.6 1.9-4 2.8 1 3.2 2.4 6.2 4.1 9.1 2.3 3.8 5.3 7.1 8.4 10.2.9-.6 1.7-1.2 2.6-1.7.8-.5 1.5-1.1 2.4-1.4 1.3-.4 2.7-.5 4 0 .9.3 1.7 1 2.4 1.7 2.1 2.4 4.1 4.8 6.2 7.2.2.3.3.6.5.9.8 1.2 1 2.8.7 4.2-.3 1.4-1.3 2.6-2.5 3.4-1.6 1.1-3.2 2.2-4.9 3.2-.7.5-1.4 1-2.2 1.3-1.3.5-2.8.4-4.2 0-1.9-.5-3.6-1.4-5.2-2.5-3.2-2.1-5.9-4.8-8.5-7.6-2.7-3-5.2-6.2-7.4-9.5-3-4.2-5.6-8.7-7.8-13.4-1.1-2.3-2.1-4.7-2.8-7.1-.9-2.8-1.5-5.7-1.5-8.6 0-1.5.3-3 1-4.3.5-.9 1.1-1.6 2-2.1 2-1.2 4-2.5 6-3.8.1-.3.5-.1.8-.3zM37.5 8.9c.5-.2 1.1 0 1.6.1 1.5.4 2.9.9 4.3 1.6 4.3 2.2 7.8 6.1 9.3 10.7 1.1 3.1 1.3 6.4.7 9.6-.1.7-.4 1.5-1 1.9-.5.4-1.2.3-1.8.1-.8-.2-1.1-1.2-.9-1.9.5-2.3.5-4.7-.1-7-1.1-4.4-4.3-8.2-8.3-10.1-.8-.4-1.7-.7-2.6-1-.7-.2-1.4-.3-1.9-.8-1.1-.9-.6-2.8.7-3.2z" /><path d="M36 16.4c.3-.1.7-.1 1 0 2 .4 3.9 1.4 5.4 2.7 1.7 1.6 3 3.8 3.4 6.1.3 1.5.3 3.1 0 4.7-.2.7-.8 1.4-1.5 1.5-.8.1-1.7-.2-2-1-.2-.5-.1-1.1 0-1.6.2-1.4 0-2.9-.6-4.1-.9-2-2.6-3.6-4.7-4.3-.4-.1-.8-.2-1.2-.4-.6-.3-1.1-.8-1.1-1.5-.2-.8.4-1.9 1.3-2.1z" /></symbol><symbol viewBox="0 0 60 60" id="search"><path d="M16.9 2c5.9-2.5 12.6-2.6 18.6-.4 3 1.1 5.9 2.7 8.3 4.9 2.7 2.4 4.9 5.4 6.4 8.7.4.7.6 1.4.4 2.2-.2 1.3-1.2 2.4-2.4 2.6-1 .3-2 0-2.8-.6-.9-.8-1.2-1.9-1.8-2.9-2.4-4.4-6.7-7.8-11.5-9.2-3.8-1.1-7.9-1-11.6.3-5.9 1.9-10.6 7-12.3 12.9-.7 2.4-.9 4.9-.6 7.4.3 2.4 1 4.8 2.2 7 2.6 4.8 7.3 8.5 12.7 9.7 1.1.3 2.3.4 3.4.5 3.2.2 6.4-.5 9.2-1.9 5.5-2.6 9.6-8.1 10.6-14.1.2-.8.1-1.7.5-2.4.4-.8 1.1-1.4 2-1.6 1.4-.4 3 .3 3.7 1.5.4.6.5 1.3.4 2-.5 4.8-2.5 9.5-5.5 13.3-.2.3-.5.6-.7.9l11 11c.6.6 1.3 1.2 1.6 2 .6 1.4-.1 3.2-1.3 3.9-1 .6-2.3.6-3.3 0-.5-.3-.8-.7-1.2-1L41.3 47.1c-7.2 5-17.1 6-25.1 2.3-5.6-2.7-10.3-7.4-12.8-13-2.1-4.6-2.8-9.7-2-14.7C2.3 15.6 5.5 10 10.2 6c2-1.7 4.3-3.1 6.7-4z" /></symbol><symbol viewBox="0 0 60 60" id="service_icon01"><path d="M12.8 2.5c.6-.2 1.3-.2 1.9-.2h28.7c1.4 0 2.8-.1 4.2.3 1.2.4 1.9 1.5 2.5 2.4C53 9.7 56 14.3 59 19c.8 1.2 1.2 2.7.9 4.1-.3 1.4-1.4 2.5-2.3 3.6-8.1 9.8-16.1 19.5-24.2 29.3-1.2 1.5-3.4 2.2-5.1 1.4-.9-.4-1.6-1.1-2.2-1.9-8.3-10-16.7-20-24.9-30.1-1.5-1.7-1.5-4.2-.3-6.1 3-5 6.1-9.8 9.2-14.7.6-1 1.6-1.8 2.7-2.1zm1.3 4.4C10.9 11.9 7.7 17 4.5 22c.6.8 1.2 1.6 1.9 2.4 7.9 9.5 15.7 18.9 23.6 28.4 7.8-9.5 15.7-18.9 23.6-28.4.7-.8 1.3-1.6 1.9-2.4-3.2-5-6.3-10.1-9.6-15.1H14.1z" /><path d="M18.5 20.7h23.1c-.1 1.5-.1 3.1 0 4.6-7.7.1-15.4 0-23.1 0v-4.6z" /></symbol><symbol viewBox="0 0 60 60" id="service_icon02"><path d="M8.6 9C14.1 3.3 22 0 29.9 0c8.1.1 16.3 3.3 21.7 9.4-.2-2 0-4.1-.1-6.1 1.6.1 3.1 0 4.7 0v12.2c-1.2.7-2.5 1.4-3.7 2.1-4.6-8.3-14-13.7-23.6-13.2C20 4.5 11.5 10 7.3 17.8 5.6 20.9 4.7 24.4 4.2 28h9.1c3.6-5.6 7.2-11.2 10.8-16.9 1.5 7.1 3.1 14.1 4.7 21.2 2.4-3.4 4.7-6.8 7-10.2 2 2 4.1 3.9 6.1 5.9h7v4.7h-9c-1.2-1.1-2.3-2.2-3.5-3.3-3.3 4.8-6.6 9.6-9.9 14.5-1.5-7-3.2-13.9-4.6-20.9-2 3.3-4.2 6.5-6.2 9.8H4.1c.6 6.6 4 12.9 9.1 17.1 3.9 3.2 8.7 5.4 13.8 5.8 7 .9 14.2-1.5 19.6-6 3.3-2.9 6-6.7 7.4-10.9 1.3-3.3 1.7-6.9 1.5-10.5l4.2-.3c.5 6.2-1.2 12.5-4.3 17.8C50.2 54.5 40 60.3 29.6 60c-5.7.1-11.3-1.9-16.1-4.9-1.8-1.2-3.4-2.6-4.9-4.1C1.9 44.3-1.3 34.2.5 24.9c.9-6 3.9-11.6 8.1-15.9z" /></symbol><symbol viewBox="0 0 60 60" id="service_icon03"><path d="M26.4.2c6.4-.8 13.1.6 18.7 3.9C53.7 9 59.6 18.5 59.9 28.4c.4 6.6-1.5 13.3-5.2 18.8-1.7 2.3-3.7 4.5-6 6.4-3.7 2.8-8 5-12.5 5.8-6.9 1.4-14.5.5-20.6-3.1-3.7-2-6.9-4.8-9.4-8.1-2.2-2.7-3.7-6-4.8-9.3C-.2 33.8-.2 28.2.9 23c2.3-9.6 9.5-17.7 18.8-21 2.1-.9 4.4-1.5 6.7-1.8zm.2 2.9c-6.6.8-12.8 4.1-17.1 9.1-3.4 4-5.8 8.9-6.4 14.2-.7 5.7.2 11.8 3.2 16.8 3.6 6.7 10.2 11.6 17.6 13.2 6.8 1.8 14.3.4 20.3-3.2 2.5-1.5 4.6-3.4 6.6-5.5 2.3-2.8 4.1-6.1 5.3-9.5.9-3.2 1.4-6.5 1.2-9.8-.5-8.8-5.6-17.2-13.2-21.7-5.3-3.1-11.5-4.4-17.5-3.6z" /><path d="M29.9 6.5c1 0 2 .1 3 .2-.1.9-.2 1.9-.3 2.8-.9-.1-1.8-.1-2.7-.2V6.5zM24.1 7.2C25 7 26 6.8 27 6.7c.1.9.2 1.9.4 2.8-.9.1-1.7.3-2.6.5-.2-1-.5-1.9-.7-2.8zM35.2 9.9c.2-.9.5-1.8.7-2.7 1 .3 1.9.6 2.8.9-.4.9-.7 1.8-1.1 2.6-.8-.3-1.6-.5-2.4-.8zM18.6 9.4c.9-.5 1.8-.9 2.7-1.3.4.9.7 1.8 1 2.6-.8.3-1.6.7-2.4 1.1-.4-.8-.9-1.6-1.3-2.4zM41.4 9.4c.9.5 1.7 1 2.5 1.6-.5.8-1.1 1.5-1.7 2.3-.7-.5-1.5-.9-2.2-1.4.4-.9.9-1.7 1.4-2.5zM13.8 12.9c.7-.7 1.5-1.3 2.3-1.9.6.8 1.1 1.5 1.7 2.3-.7.5-1.4 1.1-2 1.7-.7-.8-1.3-1.4-2-2.1zM44.2 14.9c.6-.7 1.3-1.4 1.9-2.1.7.7 1.4 1.4 2 2.2L46 16.8c-.6-.6-1.2-1.3-1.8-1.9zM11.8 15c.7.6 1.4 1.2 2.2 1.8l-1.5 2.1-2.4-1.5c.5-.8 1.1-1.6 1.7-2.4zM32.4 16.8c1.6-.3 3.3-.1 5-.2 1.4.1 2.9-.2 4.2.3 1.3.4 1.8 1.8 1.8 3.1v6.4c-.1 2.3-1.4 4.4-3.1 6-3.5 3.4-7 6.9-10.5 10.4-1 1.1-3 1.1-4 0-2.6-2.5-5.1-5.1-7.7-7.7-.7-.7-1.4-1.4-1.5-2.4-.2-.9.3-1.9 1-2.5 3.6-3.6 7.2-7.3 10.8-10.9 1.1-1.3 2.5-2.1 4-2.5zm3.2 3.8c-.9.4-1.7 1.3-1.8 2.3-.3 1.7 1.2 3.4 2.9 3.3 1.7 0 3.3-1.9 2.8-3.6-.3-1.6-2.3-2.7-3.9-2zM47.5 18.9l2.4-1.5c.5.8 1 1.7 1.4 2.6-.9.4-1.7.8-2.6 1.1-.3-.7-.8-1.5-1.2-2.2zM7.6 22.8c.3-.9.7-1.8 1.1-2.7.9.4 1.7.8 2.6 1.2-.3.8-.7 1.6-1 2.4-1-.3-1.9-.6-2.7-.9zM49.7 23.6c.9-.3 1.8-.5 2.6-.9.4.9.6 1.9.8 2.9-.9.2-1.8.3-2.8.5-.1-.8-.3-1.7-.6-2.5zM6.5 28.6c.1-1 .2-2 .4-3 .9.2 1.8.4 2.8.5-.1.9-.2 1.7-.3 2.6-1.1 0-2-.1-2.9-.1zM50.7 28.7c1 0 1.9-.1 2.9-.2v3c-1 0-1.9-.1-2.9-.2.1-.9.1-1.7 0-2.6zM6.5 31.6c.9-.1 1.9-.2 2.8-.2.1.9.2 1.7.3 2.6-.9.2-1.8.3-2.8.5-.1-1-.2-1.9-.3-2.9zM50.4 33.9c.9.2 1.9.3 2.8.5-.2 1-.4 1.9-.7 2.8l-2.7-.9c.2-.7.4-1.5.6-2.4zM7.6 37.4l2.7-.9c.3.8.6 1.6 1 2.4-.9.4-1.7.8-2.5 1.2-.5-.9-.9-1.8-1.2-2.7zM47.5 41.1c.4-.8.9-1.5 1.3-2.3.8.4 1.7.8 2.5 1.2-.4.9-.9 1.8-1.4 2.6l-2.4-1.5zM10.1 42.7l2.4-1.5 1.5 2.1c-.7.6-1.4 1.2-2.2 1.8-.6-.8-1.2-1.6-1.7-2.4zM46 43.2c.7.6 1.5 1.2 2.2 1.8-.6.8-1.3 1.5-2 2.2-.6-.7-1.3-1.4-1.9-2.1.5-.6 1.1-1.2 1.7-1.9zM13.9 47.2c.6-.7 1.3-1.4 1.9-2 .6.6 1.3 1.1 2 1.7-.5.8-1.1 1.5-1.7 2.3-.7-.7-1.5-1.3-2.2-2zM40 48.2c.7-.4 1.5-.9 2.2-1.4.6.8 1.1 1.5 1.7 2.3-.8.6-1.6 1.1-2.5 1.6-.5-.8-.9-1.7-1.4-2.5zM18.7 50.7c.4-.8.9-1.7 1.4-2.5.8.4 1.5.8 2.3 1.1-.3.9-.7 1.8-1 2.6-1-.3-1.9-.7-2.7-1.2zM35.2 50.1c.8-.3 1.7-.5 2.5-.8.3.9.7 1.8 1 2.6-.9.3-1.9.6-2.8.9-.3-.8-.5-1.8-.7-2.7zM24.8 50.1c.9.2 1.7.3 2.6.5-.1.9-.2 1.9-.3 2.8-1-.1-2-.2-2.9-.6.2-.9.5-1.8.6-2.7zM30 50.8c.9 0 1.7-.1 2.6-.1.1.9.3 1.9.3 2.8-1 .1-2 .1-3 .2.1-1 .1-2 .1-2.9z" /></symbol><symbol viewBox="0 0 60 60" id="service_icon04"><path d="M28.3 2c.2-.7.9-1 1.4-1.4.8.1 1.5.4 1.9 1.2.2 1.1.1 2.2.1 3.4h24c1.5 0 3 .7 3.7 2 .7 1.1.6 2.5.6 3.7v30.9c.2 2.5-2.2 4.6-4.6 4.3H31.8v2c3.6 2.9 7.4 5.6 11 8.4 1 .7.8 2.4-.3 2.8-.7.5-1.6.1-2.2-.4-3.1-2.3-6.1-4.6-9.2-7-.7-.7-1.7-.4-2.4.1-3.1 2.3-6.2 4.7-9.4 7.1-.5.5-1.2.3-1.8.2-.4-.5-1-1.1-.8-1.9 0-.7.7-1.1 1.2-1.5 3.5-2.6 6.9-5.3 10.4-7.9v-2.1H4.1C1.9 46 0 44.1 0 42V9.1c0-2.1 1.8-4 4-4h24.2c0-1.1-.1-2.1.1-3.1zM3.6 8.7c0 .9-.1 1.8-.1 2.8.1 10.3-.1 20.6.1 30.9 17.6.1 35.1 0 52.7.1.2-.6.3-1.2.2-1.8-.1-10.7 0-21.3-.1-32-1.1-.2-2.3-.1-3.5-.1h-48c-.4 0-.9 0-1.3.1z" /><path d="M48.4 19.3c.7-.6 1.9-.8 2.5 0 .6.6.7 1.8 0 2.4-4.3 3.7-8.8 7.2-13.2 10.8-.5.5-1.2.8-1.8 1.1-.7-.3-1.3-.6-1.9-1-4.2-2.9-8.4-5.7-12.6-8.6-3.2 3-6.5 5.9-9.8 8.8-1 1.1-3.2.2-2.9-1.3 0-.9.8-1.4 1.4-2 3.4-3 6.7-6.1 10.1-9 .6-.7 1.6-.5 2.3.1 4.5 3 8.9 6 13.4 9 4.1-3.5 8.3-6.9 12.5-10.3z" /></symbol><symbol viewBox="0 0 60 60" id="service_icon05"><path d="M.7 3.5C2.1 2 5.4 2.7 5.4 5.1c.1 15.6 0 31.2 0 46.7h51.2c.9 0 1.9 0 2.6.6 1 1.2 1 3.1 0 4.2-.7.6-1.7.6-2.5.6H2.2C.9 57.2-.1 56 0 54.6V6c.1-.8 0-1.8.7-2.5z" /><path d="M52.7 3.4c.8-.5 1.7-.8 2.6-.6 1.2.5 2.3 1.8 1.9 3.2-.2 1-1 1.7-1.8 2.2-4.5 2.6-8.9 5.3-13.3 8-.7.4-1.6.3-2.4 0-3.9-1.7-7.9-3.1-11.9-4.8-4.2 3.2-8.2 6.5-12.3 9.7-.9.7-2.3 1-3.3.3-1.3-.7-1.6-2.6-.8-3.8.6-.7 1.4-1.3 2.2-1.9 3.9-3.2 7.9-6.3 11.8-9.5.6-.6 1.7-1 2.6-.6 4.2 1.6 8.4 3.4 12.7 5l12-7.2zM53 16.8c.9-.4 2-.4 2.9-.1 1.1.4 1.4 1.7 1.3 2.7v23.7c0 .9 0 2-.7 2.6-1.2.9-3.1.9-4.2-.1-.6-.7-.6-1.7-.6-2.6V19.4c.1-1 .3-2.2 1.3-2.6zM25.4 22.4c1.6-1.2 4.7-.5 4.6 1.8.1 6.2 0 12.3.1 18.5 0 1 .1 2.1-.6 2.9-1.2 1.1-3 .9-4.2.2-.5-.8-.7-1.8-.6-2.7V25.2c-.2-1-.1-2.1.7-2.8zM39.7 24.8c1.1-.3 2.6-.3 3.4.7.6.7.5 1.7.6 2.5v15.1c-.1.9 0 2-.7 2.6-1.3 1.1-3.6.9-4.4-.6-.3-.9-.3-1.8-.3-2.7V27.3c-.2-1.1.4-2.2 1.4-2.5zM12.5 30.2c.9-.2 2-.2 2.8.3 1 .7 1 1.9 1 3v9.6c0 .9 0 1.9-.6 2.6-1.2 1-3.1 1-4.2 0-.7-.8-.6-1.9-.6-2.9v-10c0-1.1.5-2.3 1.6-2.6z" /></symbol><symbol viewBox="0 0 60 60" id="service_icon06"><path d="M14.6 2.5C15.7 1 17.6.1 19.5 0c1.9.1 3.8.9 4.9 2.5 1.1 1.6 1.6 3.8.9 5.6-.7 2.2-2.7 3.7-4.9 4.2L15.3 24c1 .6 1.9 1.5 2.6 2.5-.2-.3-.4-.7-.5-1 8.3-4.6 16.6-9.3 25-13.9-.9-2.7-.3-5.8 1.4-8.1C46.3.2 51.2-.9 54.9 1c2.9 1.3 4.7 4.3 4.9 7.4.2 3-1.2 6-3.6 7.8-2.3 1.5-5.3 2.2-8 1.2-1.8-.5-3.3-1.7-4.4-3.1-8.3 4.5-16.6 9.2-24.9 13.8.7 1.9 1 3.9.5 5.8l15 8.1c1.9-3.3 5.3-5.6 9.1-6 3.2-.2 6.5.6 9 2.7 1.8 1.6 3.3 3.7 3.9 6.1.9 3.5.2 7.5-2 10.4-1.9 2.6-5 4.3-8.3 4.7-3.9.4-7.9-1.1-10.4-4.2-2.6-2.9-3.5-7.2-2.5-10.9-5-2.7-9.9-5.4-14.9-8.1-2.2 4.3-7.9 6.1-12.2 4.1C2.6 39.4.3 35.7.3 31.9c0-2.2.8-4.5 2.3-6.2 2.3-3 6.5-4.1 10.1-3.1 1.6-3.6 3.1-7.2 4.8-10.8-1.6-.8-3.2-2-3.7-3.8-.7-1.8-.5-4 .8-5.5zm3.7.8c-.9.4-1.6 1.2-1.8 2.2-.5 1.8 1.2 3.9 3.1 3.8 2 .1 3.7-2.2 3-4.1-.6-1.7-2.7-2.7-4.3-1.9zm30.8-.1c-3.2.9-5.1 4.8-3.8 7.9.8 2.1 2.8 3.6 5 3.8 2 .2 4-.7 5.2-2.2 2-2.4 1.6-6.3-.9-8.2C53.2 3 51 2.7 49.1 3.2zM7.9 25.6c-2.7.8-4.7 3.5-4.6 6.3-.1 3.4 2.8 6.5 6.2 6.7 3.8.4 7.5-3.2 7.1-7-.1-4.2-4.8-7.4-8.7-6zm34.3 13.7c-1.9.6-3.6 1.8-4.8 3.4-2.4 3.3-2.2 8.3.7 11.4 3.5 4.1 11 3.9 13.9-.7 1.7-2.1 2.1-5 1.5-7.6-1.2-4.8-6.6-8-11.3-6.5z" /></symbol><symbol viewBox="0 0 60 60" id="service_icon07"><path d="M21 3.3c3.2-.6 6.5-.4 9.5 1 4.4 1.9 7.9 5.7 9.1 10.4 1.9 6.3-.7 13.6-6.1 17.3 2.7 1.4 5.4 2.9 7.5 5 4.8 4.6 7.6 11.3 7.5 17.9-.2 1.6-2.2 2.8-3.6 1.7-1.2-.6-1.1-2.1-1.2-3.2-.3-4.8-2.4-9.5-5.9-12.9-3.1-2.9-7.1-4.9-11.3-5.4-8.4-1.1-17.1 4-20.2 11.8-1.1 2.4-1.4 5.1-1.6 7.7 0 .9-.6 1.7-1.4 2.1-1.3.8-3.1-.4-3.3-1.8-.1-7.2 3.1-14.3 8.5-18.9 2-1.6 4.2-2.9 6.5-4-3.1-2.2-5.3-5.4-6.2-9.1-1.2-4.1-.3-8.6 1.8-12.3 2.3-3.7 6.1-6.4 10.4-7.3zm.5 4.9c-2.6.8-5.1 2.4-6.5 4.7-1.7 2.6-2.2 5.9-1.4 8.9.8 3.5 3.5 6.4 6.8 7.6 2.2.8 4.6.9 6.8.3 3.2-.8 5.9-3.2 7.3-6.2 1.3-2.9 1.2-6.2 0-9.1-2.1-4.9-8-7.6-13-6.2z" /><path d="M41 7.6c-.7-1.3.2-3.1 1.7-3.3 1.1-.2 2.2.4 3.2.9 4.2 2 7.4 6 8.3 10.6 1.3 5.6-.9 12-5.5 15.5 4.5 2.1 8.1 5.9 10 10.5 1.1 2.9 1.6 6 1.4 9.1-.1.8-.6 1.5-1.2 1.8-1.2.8-2.9 0-3.4-1.2-.2-1-.1-2-.2-3-.3-5.9-4.4-11.5-9.9-13.4-1.5-.6-3.2-.6-4.7-1.1-1.5-.7-1.7-2.8-.6-3.9 1.1-.8 2.5-.8 3.7-1.5 4.9-2.3 7.3-8.6 5.1-13.5-1-2.7-3.2-4.9-5.9-5.9-.8-.3-1.7-.7-2-1.6z" /></symbol><symbol viewBox="0 0 60 60" id="service_icon08"><path d="M9 .1C22.4 0 35.9.1 49.3.1c3.1-.1 6.5.9 8.5 3.5 2.7 2.9 2.2 7.1 2.2 10.8-.1 1.7.2 3.4-.2 5-.5 1.7-3.4 1.4-3.5-.4-.3-3.5.1-7.1-.2-10.6-.2-2.8-3.1-4.7-5.8-4.5H9.9c-1.9-.1-3.9.8-5 2.3-.9 1.1-.9 2.7-1 4.1v26.1c0 1.6-.1 3.3.3 4.9.7 2.1 2.8 3.7 5.1 3.6 13.3.1 26.6 0 40 0 1.5-.1 3.2 0 4.5-1 1.3-1 2.3-2.5 2.3-4.1.2-3.1 0-6.3.1-9.4 0-.7.2-1.6.9-2 1-.8 2.6 0 2.8 1.3.2 1.7 0 3.5.1 5.2 0 2.6.3 5.3-.7 7.7-1.2 3.8-5.2 6.1-9.1 6.1h-40c-2.7 0-5.5-.8-7.4-2.8C.7 44.1 0 41.2 0 38.5V10.2C0 7.6.7 4.9 2.6 3 4.2 1.1 6.6.3 9 .1zM4.1 56.6c.8-.3 1.6-.5 2.4-.4h47.6c1.2-.1 2.5.8 2.3 2.2-.1 1.1-1.2 1.7-2.2 1.6H6.1c-.7 0-1.4-.3-2.1-.5-.2-.5-.3-1-.5-1.5.3-.5.4-.9.6-1.4z" /></symbol><symbol viewBox="0 0 60 60" id="shangxian"><path d="M28.8.2h2c4.8 4.7 9.5 9.4 14.2 14.2 1.7 1.8-1.2 4.5-3 3.1-3.4-3.2-6.5-6.6-9.9-9.8v32.6c0 1.2.1 2.3-.1 3.5-.2 1-1.1 2.1-2.2 1.9-1.4.2-2.4-1.4-2.3-2.7V7.6c-3.3 3.2-6.4 6.5-9.7 9.6-1.2 1.2-3.6.2-3.7-1.5-.1-1 .7-1.7 1.4-2.4C19.9 9 24.3 4.5 28.8.2z" /><path d="M1.3 27.9c.9-.5 2.3-.2 2.8.8.7 1.1.4 2.4.5 3.7.8 7.8 5.3 15.2 12.1 19.3 4.2 2.5 9 3.9 13.9 3.7 4 .1 7.8-1.1 11.3-2.8 6.4-3.3 11.3-9.5 12.9-16.6.7-2.4.5-4.9 1.1-7.3 1-1.5 3.5-1.1 4 .6.4 3.9-.7 7.8-1.9 11.5-3 7.7-9.4 14.2-17.2 17.1-9.3 3.6-20.5 2.1-28.5-3.9-4.7-3.6-8.6-8.5-10.5-14.2C.5 36.7.2 33.3 0 30c.1-.8.4-1.8 1.3-2.1z" /></symbol><symbol viewBox="0 0 60 60" id="sheji"><path d="M11.8.5c1.6-.7 3.5-.3 4.7.9 5.1 5 10 10.1 15.1 15 9 9.1 18.1 18 27.1 27 1.5 1.5 1.6 4.1.2 5.7-2.9 3.1-6.1 6-9.1 9.1-1.6 2-4.8 2.1-6.5.2-9.1-9.1-18.3-18.1-27.5-27.3-4.9-4.7-9.7-9.6-14.5-14.4-1.7-1.5-1.8-4.4-.2-5.9 2.4-2.5 5-4.8 7.4-7.3 1.1-1.1 1.9-2.4 3.3-3zM3.7 13.3c-.4.5.3.8.5 1.2 10.6 10.6 21.3 21.2 31.9 31.8 3.5 3.3 6.7 6.9 10.3 10.1 3.5-3.2 6.7-6.5 10-9.9-.4-.6-.9-1.2-1.5-1.7l-4.1 4.1c-.4.5-1 .8-1.7.7-1.3 0-2.2-1.9-1.2-2.9 1.4-1.6 2.9-3 4.5-4.5-.7-.7-1.4-1.4-2.2-2.1-.8.7-1.4 1.6-2.3 2.2-1.4.8-3.2-1-2.4-2.4.6-.9 1.4-1.6 2.2-2.3-.6-.8-1.4-1.5-2.1-2.1-1.5 1.5-3 3.2-4.6 4.5-1.5 1-3.4-1-2.4-2.5 1.4-1.6 3-3.1 4.5-4.6L41 30.8c-.9.8-1.6 1.8-2.6 2.3-1.4.5-2.9-1.2-2.1-2.5.6-.9 1.4-1.6 2.2-2.4l-2.1-2.1c-1.7 1.5-3.1 3.3-4.9 4.7-1.5.7-3.2-1.2-2.2-2.6 1.4-1.6 3-3.1 4.6-4.6-.6-.8-1.4-1.4-2.1-2.1-.9.7-1.6 1.7-2.6 2.3-1.3.5-2.8-.9-2.3-2.3.5-1 1.5-1.7 2.3-2.5-.6-.8-1.4-1.5-2.2-2.1-1.2 1.3-2.5 2.5-3.8 3.8-.5.5-1 1.1-1.8 1-1.5.1-2.3-1.9-1.3-3 1.4-1.6 3-2.8 4.4-4.4l-2.1-2.1c-.8.8-1.5 1.7-2.5 2.3-1.3.6-2.8-.9-2.3-2.2.4-1.1 1.5-1.8 2.3-2.6-.7-.7-1.4-1.5-2.1-2.2-1.5 1.5-3 3.1-4.6 4.5-1.5 1.1-3.6-.9-2.5-2.4 1.4-1.7 3-3.1 4.5-4.7-.5-.6-1.1-1.2-1.9-1.5-3.2 3.5-6.5 6.6-9.6 9.9zM44.7.6c1.5-.7 3.5-.4 4.7.8L56 8c1.1 1.1 2.3 2.1 3.2 3.3 1.1 1.6.9 3.9-.5 5.3-2.8 2.9-5.7 5.7-8.5 8.5-1 1.1-2.6 1.7-4.1 1.4-1.7-.3-2.7-1.8-3.8-2.9-2.6-2.5-5.2-5-7.7-7.7-1.5-1.6-1.4-4.4.2-5.9l7.9-7.9c.7-.6 1.3-1.2 2-1.5zM37 13.1c3.3 3.4 6.6 6.7 10 9.9.5-.3.9-.7 1.3-1.1 2.7-2.8 5.6-5.5 8.2-8.3-3.2-3.5-6.7-6.7-10.1-10-3.2 3.1-6.4 6.2-9.4 9.5zM11.5 33.8c1.6-.5 3.4-.2 4.5 1 3.1 3 6.2 6.1 9.2 9.2 1.5 1.5 1.6 4 .2 5.6-1.6 1.9-3.8 3.2-6.1 3.9-4.2 1.3-8.4 2.6-12.7 3.9-1 .3-2 .6-3 .1-1.6-.5-2-2.5-1.5-3.9 1.3-4.5 2.6-9 4-13.5 1-2.4 2.8-5 5.4-6.3zm.3 4.2c-2.9 2.9-3.2 7.2-4.5 10.9 1 1.2 2.1 2.5 3.1 3.7 2.4-.7 4.8-1.5 7.2-2.2 1.7-.5 3.3-1.2 4.5-2.4.4-.3 1.1-1 .4-1.4l-9.1-9.1c-.6-.7-1.2.1-1.6.5z" /></symbol><symbol viewBox="0 0 60 60" id="syyj_jd01"><path d="M28 .1c6.7-.4 13.5 1.3 19 5.2 4.4 3 8 7.3 10.3 12.1 2.8 6.2 3.5 13.4 1.8 20-2.5 10.4-11.2 19-21.5 21.6-7 1.8-14.6 1-21.1-2.3C11.4 54 7 50 4.2 45 0 38.3-1 29.8 1 22.2 2.7 15.8 6.7 10 12 6 16.6 2.5 22.2.4 28 .1zm-.3 6.3c-4 .5-7.9 1.8-11.2 4.1-3.1 2.4-5.9 5.3-7.7 8.8-.9 1.8-1.5 3.8-2 5.8-1.4 6.4.1 13.3 3.8 18.6 2.6 3.4 5.9 6.4 9.9 8 5.7 2.6 12.4 2.7 18.2.3 8.4-3.3 14.6-11.8 14.9-20.8.3-4.8-1.1-9.7-3.6-13.8-1.8-2.7-4.2-5.1-6.8-7-4.4-3.1-10.1-4.6-15.5-4z" /><path d="M27.4 25.6c4.6-3.3 9.4-6.4 14-9.8-2.4 5.9-4.9 11.7-7.3 17.6-.3.8-1.2 1.1-1.8 1.6-4.6 3.1-9.1 6.1-13.7 9.2 2.3-5.6 4.3-11.2 6.6-16.8.5-.8 1.5-1.2 2.2-1.8zm1.5 3.2c-1 .4-1.1 1.5-1.1 2.4.6.7 1.5 1.4 2.4 1 1.1-.3 1.3-1.5 1.3-2.5-.7-.6-1.6-1.4-2.6-.9z" /></symbol><symbol viewBox="0 0 60 60" id="syyj_jd02"><path d="M1 4c.5-.4 1.1-.3 1.6-.3h55.1c1.9-.3 2.5 1.9 2.2 3.4v35.6c.1 1.3-1 2.5-2.3 2.3H2.5c-.8.1-1.7-.2-2.2-.9-.4-.8-.3-1.9-.3-2.8V6c0-.8.2-1.6 1-2zm3 3.5c-.1 11.2 0 22.4 0 33.6h52.1c0-11.2-.1-22.3 0-33.5-17.4-.2-34.8 0-52.1-.1z" /><path d="M31 27.3c6.3-5.4 12.7-10.6 19-16.1.7 1.1 1.6 2 2.5 3-7.1 6.1-14.2 12.1-21.3 18.2-.4.5-.8 0-1-.3-2.7-2.7-5.5-5.4-8.2-8-3.2 3.7-6.7 7.2-9.8 10.9-1-.8-2-1.7-3-2.6 4.3-4.6 8.4-9.3 12.7-14 3 3 5.9 6.1 9.1 8.9zM7.5 52.3c14.9.1 29.8 0 44.7 0v4c-14.9-.1-29.8 0-44.7 0 .1-1.3.1-2.6 0-4z" /></symbol><symbol viewBox="0 0 60 60" id="syyj_jd03"><path d="M21.6 3.6c0-2 2-3.8 4-3.6h26.2c1.2 0 2.4-.1 3.5.4 1.3.8 2.1 2.4 2 3.9v30.5c0 2.2.4 4.8-1.4 6.4-1.7 1.3-4 .9-6.1 1-.9-.1-2.3.1-2.6-1.1-.2-.8-.1-2.1 1-2.3 1.8-.3 3.7-.1 5.5-.2V3.5H25v7.6h13.6c1.5 0 3.3.3 4.3 1.6 1 1 1 2.5 1 3.8v38.4c0 1.2-.1 2.5-.9 3.4-1 1.2-2.8 1.6-4.3 1.6h-31c-1.6 0-3.2-.5-4.2-1.7-.8-1.1-.8-2.5-.8-3.8V16c0-1.2.2-2.5 1.1-3.5 1-1.3 2.8-1.5 4.4-1.5h13.4c0-2.4-.1-4.9 0-7.4zM6.2 16c0 13.4.1 26.8 0 40.2 1.7.4 3.5.3 5.3.3h22c2.3 0 4.6.1 6.9-.2V14.8c-11.1-.2-22.1 0-33.2-.1-.8-.1-1.1.6-1 1.3z" /><path d="M9.7 24.8c-.1-1.2.2-2.9 1.7-2.8 7-.2 14.1 0 21.1-.1 1.2 0 2.8-.2 3.4 1.1.7 1.3-.7 2.8-2 2.6H12.3c-.9.1-1.7-.4-2.6-.8zM9.9 35.2c.4-.9 1.6-.8 2.5-.8h21.1c.8.1 1.7-.1 2.2.6.6.5.4 1.4.5 2.1-.7.4-1.4.9-2.2.8H11.5c-1.5.1-2.2-1.6-1.6-2.7zM10.6 45.2c1-.4 2.1-.3 3.2-.3 6.7.1 13.4 0 20.1 0 1-.1 2.1.6 2.2 1.7.1 1.2-1.1 2.1-2.2 1.9H12.3c-.9 0-1.9-.1-2.5-.9-.3-.8-.1-2 .8-2.4z" /></symbol><symbol viewBox="0 0 60 60" id="video"><path d="M27.3.1C33-.4 38.8.8 43.9 3.4c.8.5 1.2 1.6.9 2.5-.3.9-1.2 1.5-2.2 1.5-.7-.1-1.4-.5-2-.8-2.2-1-4.5-1.7-6.9-2-4.8-.6-9.8 0-14.2 2-5.1 2.2-9.3 6.2-12 11-2.2 4-3.3 8.5-3.1 13 .1 4.2 1.3 8.4 3.3 12 2.8 5 7.4 9 12.8 11.1 2.3.9 4.6 1.5 7 1.7 1.1.1 2.2.2 3.3.1 2.3-.1 4.7-.5 6.9-1.2 4.5-1.4 8.6-4.1 11.7-7.7 2.6-3 4.6-6.7 5.5-10.6 1.3-5.4.9-11.1-1.3-16.2-.3-.7-.6-1.3-.9-2-.3-.8-.2-1.7.5-2.3.5-.5 1.2-.7 1.8-.6.7.1 1.4.6 1.7 1.3 1.9 3.8 3.1 7.9 3.2 12.2.3 5.6-1 11.2-3.7 16.1-2 3.7-4.9 6.9-8.2 9.4-2 1.5-4.2 2.8-6.5 3.7-5 2-10.5 2.8-15.8 2-2.8-.4-5.5-1.2-8.1-2.4-1.9-.8-3.6-1.9-5.3-3.1-2.1-1.5-4-3.4-5.6-5.4C2.4 43.7.1 37 0 30.3c-.1-6.5 2-12.9 5.8-18.1 1.4-1.8 2.9-3.5 4.7-5 2-1.8 4.3-3.2 6.6-4.3C20.4 1.4 23.8.4 27.3.1z" /><path d="M49.1 8.2c1.2-.3 2.6.7 2.6 1.9.1 1.2-.9 2.3-2.1 2.3-1.1.1-2.2-1-2.2-2.1 0-1 .8-1.9 1.7-2.1zM23.1 18.6c.4-.1.8-.1 1.2.1.4.1.7.5 1.1.7l15 8.7c.7.4 1.2 1.4 1 2.2-.1.7-.6 1.3-1.2 1.6C34.9 35 29.7 38 24.5 41c-1.3.7-3.1-.4-3-1.9V20.8c-.1-1 .6-2 1.6-2.2z" /></symbol><symbol viewBox="0 0 64 64" id="video02"><path d="M32 64C14.3 64 0 49.7 0 32S14.3 0 32 0s32 14.3 32 32-14.3 32-32 32zm-8-46v28l24-14-24-14z" /></symbol><symbol viewBox="0 0 60 60" id="yanzhengma"><path d="M20.6 3.3C23.1 1.4 26 .2 29.1 0 33-.2 37 1.2 39.9 3.7c3 2.9 5.1 6.9 5.1 11.1V30c1.9 2.7 3.3 5.9 3.6 9.2.5 4.7-.8 9.6-3.7 13.4-2.6 3.4-6.4 5.9-10.6 6.9-4.8 1.2-10 .3-14.2-2.3-4.3-2.6-7.4-7.1-8.5-12-.7-3.7-.5-7.6 1-11.1.6-1.4 1.5-2.7 2.3-4V14.9c.1-4.5 2.3-8.8 5.7-11.6zm4.7 1.5c-1.8.9-3.6 2.2-4.7 4-1.3 1.8-1.8 4.1-1.9 6.3v11.2c2.1-1.6 4.5-2.9 7.2-3.4 3.6-.9 7.5-.5 10.9.8 1.6.6 3 1.6 4.4 2.5V14.8c0-3.4-1.7-6.7-4.4-8.7-3.1-2.5-7.8-3-11.5-1.3zm2.1 21.7c-5.4.9-10 5-11.7 10.2-1.3 3.8-.9 8.2 1.1 11.8 1.9 3.7 5.6 6.4 9.6 7.4 6 1.6 12.8-1.1 16.1-6.3 2.5-3.7 3.3-8.7 1.7-13-2.4-6.7-9.7-11.5-16.8-10.1z" /><path d="M28.9 37.9c1.1-.7 2.8 0 2.9 1.3.1 2.6.1 5.2 0 7.8.1 1.4-1.9 2.2-2.9 1.4-.8-.4-.8-1.3-.8-2v-6.5c0-.8.2-1.6.8-2z" /></symbol></defs></svg>